<svg xmlns="http://www.w3.org/2000/svg" width="256" height="256" viewBox="0 0 100 100"><rect width="100" height="100" rx="20" fill="#008bff"></rect><path d="M32.05 58.91L32.05 26L44.89 26L44.89 58.91Q44.87 63.59 42.54 67.14Q40.20 70.70 36.11 72.68Q32.02 74.66 26.70 74.66L26.70 74.66Q22.09 74.66 18.27 73.05Q14.45 71.45 12.17 67.99Q9.90 64.53 9.92 59L9.92 59L22.95 59Q23.02 60.80 23.57 62.05Q24.13 63.29 25.12 63.91Q26.12 64.53 27.55 64.53L27.55 64.53Q29.00 64.53 30.00 63.90Q30.99 63.27 31.51 62.01Q32.02 60.76 32.05 58.91L32.05 58.91ZM89.42 41L76.95 41Q76.77 38.66 75.21 37.34Q73.65 36.03 70.48 36.03L70.48 36.03Q68.47 36.03 67.19 36.51Q65.91 36.99 65.30 37.81Q64.70 38.63 64.67 39.69L64.67 39.69Q64.63 40.55 64.99 41.25Q65.35 41.94 66.15 42.49Q66.95 43.04 68.19 43.48Q69.43 43.93 71.14 44.28L71.14 44.28L75.08 45.13Q79.06 45.97 81.90 47.35Q84.73 48.73 86.54 50.60Q88.34 52.46 89.20 54.78Q90.05 57.10 90.08 59.84L90.08 59.84Q90.05 64.58 87.71 67.86Q85.37 71.14 81.02 72.85Q76.67 74.56 70.58 74.56L70.58 74.56Q64.32 74.56 59.67 72.71Q55.02 70.86 52.45 67.00Q49.88 63.15 49.86 57.13L49.86 57.13L62.23 57.13Q62.35 59.33 63.34 60.83Q64.32 62.33 66.11 63.10Q67.91 63.88 70.39 63.88L70.39 63.88Q72.48 63.88 73.88 63.36Q75.29 62.84 76.02 61.93Q76.74 61.02 76.77 59.84L76.77 59.84Q76.74 58.74 76.05 57.91Q75.36 57.08 73.79 56.41Q72.22 55.74 69.55 55.16L69.55 55.16L64.77 54.13Q58.39 52.74 54.72 49.50Q51.05 46.25 51.08 40.63L51.08 40.63Q51.05 36.05 53.53 32.62Q56.00 29.19 60.39 27.27Q64.79 25.34 70.48 25.34L70.48 25.34Q76.30 25.34 80.54 27.29Q84.78 29.23 87.09 32.76Q89.40 36.29 89.42 41L89.42 41Z" fill="#fff"></path></svg>